# xmcd
#
# Track frame offsets: 
#        150
#        20131
#        35350
#        50723
#        72219
#        87992
#        104103
#        119754
#        135174
#        149244
#        163474
#        177558
#        191571
#        206094
#        221146
#        235335
#        250236
#        263977
#        279425
#        292479
#
# Disc length: 4078 seconds
#
# Revision: 0
# Processed by: cddbd v1.5.2PL0 Copyright (c) Steve Scherf et al.
# Submitted via: ExactAudioCopy v1.0b3
#
DISCID=5b0fec14
DTITLE=Various Artist - Rev. E.D. Campbell, Rev. Isaiah Shelton, Rev.
DTITLE=C.F. Thornton - Complete Recorded Works In Chronological Order
DTITLE=(1927)
DYEAR=1995
DGENRE=Gospel
TTITLE0=Rev. E.D. Campbell - I Will Arise And Go To My Father
TTITLE1=Rev. E.D. Campbell - Daniel Prayed Three Times A Day
TTITLE2=Rev. E.D. Campbell - Take Me To The Water
TTITLE3=Rev. E.D. Campbell - Come Let Us Eat Together
TTITLE4=Rev. E.D. Campbell - Pharaoh Said ''Who Is The Lord?''
TTITLE5=Rev. E.D. Campbell - In Hell He Lifted Up His Eyes
TTITLE6=Rev. E.D. Campbell - Faith
TTITLE7=Rev. E.D. Campbell - Hell Under The Water
TTITLE8=Rev. E.D. Campbell - Prayer
TTITLE9=Rev. E.D. Campbell - Come And See A Man
TTITLE10=Rev. E.D. Campbell - Saul Of Tarsus
TTITLE11=Rev. E.D. Campbell - Preach The Word
TTITLE12=Rev. E.D. Campbell - Escape For Your Life
TTITLE13=Rev. E.D. Campbell - The Hem Of His Garment
TTITLE14=Rev. E.D. Campbell - Wait Until Your Chance Comes
TTITLE15=Rev. E.D. Campbell - It's Gonna Rain
TTITLE16=Rev. Isaiah Shelton - The Liar
TTITLE17=Rev. Isaiah Shelton - As The Eagle Stirreth Her Nest
TTITLE18=Rev. C.F. Thornton - Keep Him From Rising
TTITLE19=Rev. C.F. Thornton - The Prodigal Son
EXTD=
EXTT0=
EXTT1=
EXTT2=
EXTT3=
EXTT4=
EXTT5=
EXTT6=
EXTT7=
EXTT8=
EXTT9=
EXTT10=
EXTT11=
EXTT12=
EXTT13=
EXTT14=
EXTT15=
EXTT16=
EXTT17=
EXTT18=
EXTT19=
PLAYORDER=
